<svg width="24" height="24" viewBox="0 0 24 24" fill="none" xmlns="http://www.w3.org/2000/svg">
<rect width="24" height="24" rx="5" fill="white"/>
<path d="M15.9757 4.94454L18.8041 7.77297C19.2923 8.26113 19.2923 9.05258 18.8041 9.54074L9.31272 19.0321C9.09717 19.2475 8.81152 19.3758 8.51032 19.3953L8.38119 19.3974L5.65772 19.2925C5.04578 19.2689 4.547 18.8072 4.46655 18.2118L4.45619 18.0909L4.35123 15.3675C4.33789 15.0197 4.47051 14.6821 4.71652 14.4359L14.2079 4.94454C14.6961 4.45639 15.4875 4.45639 15.9757 4.94454Z" stroke="#FF9000" stroke-width="1.5"/>
<path d="M14.4697 10.5303C14.7626 10.8232 15.2374 10.8232 15.5303 10.5303C15.8232 10.2374 15.8232 9.76256 15.5303 9.46967L14.4697 10.5303ZM12.5 7.5L11.9697 8.03033L14.4697 10.5303L15 10L15.5303 9.46967L13.0303 6.96967L12.5 7.5Z" fill="#FF9000"/>
</svg>
