<svg width="510" height="119" viewBox="0 0 510 119" fill="none" xmlns="http://www.w3.org/2000/svg">
<path d="M334.255 98.3309C333.585 92.9745 333.167 87.4506 333 81.7593C332.832 76.0681 332.749 70.0839 332.749 63.8068C332.749 57.5297 332.832 51.5455 333 45.8542C333.167 40.163 333.585 34.681 334.255 29.4082C334.674 25.3908 336.096 22.0849 338.524 19.4903C341.034 16.8958 344.131 14.8453 347.814 13.3388C351.496 11.7486 355.597 10.6605 360.117 10.0747C364.636 9.40509 369.156 9.07031 373.675 9.07031C378.446 9.07031 383.133 9.36325 387.736 9.94911C392.423 10.4513 396.608 11.5393 400.29 13.2132C404.057 14.8871 407.07 17.2724 409.329 20.3691C411.589 23.4658 412.719 27.525 412.719 32.5467C412.719 36.6478 411.798 39.2423 409.957 40.3304C408.116 41.4184 404.726 41.2929 399.788 39.9537C398.114 39.5353 396.357 39.2005 394.515 38.9494C392.758 38.6146 391.084 38.4472 389.494 38.4472C384.974 38.4472 381.082 38.782 377.818 39.4516C374.554 40.0374 371.583 40.8744 368.905 41.9624C368.235 42.2135 367.775 42.5901 367.524 43.0923C367.273 43.5945 367.189 44.0966 367.273 44.5988C367.44 45.0173 367.733 45.3521 368.152 45.6031C368.654 45.7705 369.281 45.7287 370.035 45.4776C372.797 44.4733 375.81 43.72 379.074 43.2178C382.338 42.7157 385.518 42.4646 388.615 42.4646C391.795 42.3809 394.766 42.5901 397.528 43.0923C400.29 43.5945 402.508 44.3477 404.182 45.3521C407.111 47.1933 409.246 49.5368 410.585 52.3824C412.008 55.2281 412.719 59.0362 412.719 63.8068C412.719 68.5774 412.008 72.4274 410.585 75.3567C409.246 78.2023 407.111 80.5039 404.182 82.2615C402.508 83.3495 400.29 84.1447 397.528 84.6468C394.766 85.149 391.795 85.4001 388.615 85.4001C385.518 85.3164 382.338 85.0234 379.074 84.5213C375.81 83.9354 372.797 83.1403 370.035 82.136C369.281 81.8849 368.654 81.8849 368.152 82.136C367.733 82.3871 367.44 82.7218 367.273 83.1403C367.189 83.5588 367.273 84.0191 367.524 84.5213C367.775 85.0234 368.235 85.4001 368.905 85.6512C371.583 86.7392 374.554 87.5761 377.818 88.162C381.082 88.7479 384.974 89.0408 389.494 89.0408C391.084 89.0408 392.758 88.9153 394.515 88.6642C396.357 88.4131 398.114 88.0783 399.788 87.6598C404.726 86.4044 408.116 86.3207 409.957 87.4087C411.798 88.4131 412.719 90.9239 412.719 94.9413C412.719 99.963 411.589 104.022 409.329 107.119C407.07 110.216 404.057 112.601 400.29 114.275C396.608 116.032 392.423 117.162 387.736 117.664C383.133 118.25 378.446 118.543 373.675 118.543C369.156 118.543 364.636 118.208 360.117 117.539C355.597 116.953 351.496 115.865 347.814 114.275C344.131 112.768 341.034 110.718 338.524 108.123C336.096 105.529 334.674 102.265 334.255 98.3309Z" fill="#FF7900"/>
<path d="M275.617 81.0065C275.534 84.438 275.366 87.7858 275.115 91.0499C274.864 94.314 274.571 97.5781 274.236 100.842C273.985 103.186 273.483 105.362 272.73 107.37C271.977 109.463 270.889 111.262 269.466 112.769C268.127 114.275 266.453 115.447 264.444 116.284C262.519 117.205 260.259 117.665 257.665 117.665C254.987 117.665 252.643 117.205 250.634 116.284C248.709 115.447 247.036 114.275 245.613 112.769C244.274 111.262 243.227 109.463 242.474 107.37C241.721 105.362 241.219 103.186 240.968 100.842C239.712 88.8739 239.084 76.5707 239.084 63.9328C239.084 51.2948 239.712 38.9917 240.968 27.0233C241.219 24.6799 241.721 22.5038 242.474 20.4951C243.227 18.4864 244.274 16.7288 245.613 15.2223C247.036 13.7158 248.709 12.5441 250.634 11.7071C252.643 10.7865 254.987 10.3262 257.665 10.3262C260.259 10.3262 262.519 10.7865 264.444 11.7071C266.453 12.5441 268.127 13.7158 269.466 15.2223C270.889 16.7288 271.977 18.4864 272.73 20.4951C273.483 22.5038 273.985 24.6799 274.236 27.0233C274.655 31.1244 274.948 35.0999 275.115 38.9498C275.283 42.7161 275.492 46.7335 275.743 51.0019C277.5 45.8965 279.551 41.0004 281.894 36.3134C284.322 31.5428 286.498 27.3581 288.423 23.7592C289.678 21.4157 291.185 19.3234 292.942 17.4821C294.7 15.5571 296.625 14.0924 298.717 13.0881C300.893 12.0001 303.237 11.4142 305.747 11.3305C308.342 11.2468 311.146 11.8327 314.159 13.0881C319.181 15.2642 322.528 18.2772 324.202 22.1272C325.96 25.8934 325.876 30.2037 323.951 35.058C322.696 38.4058 321.147 41.7536 319.306 45.1014C317.465 48.4492 315.456 51.6715 313.28 54.7682C311.188 57.7812 308.97 60.6268 306.626 63.305C304.283 65.8996 301.939 68.1175 299.596 69.9588C299.177 70.2099 298.926 70.5447 298.843 70.9631C298.843 71.3816 298.926 71.7582 299.094 72.093C299.345 72.3441 299.638 72.5115 299.973 72.5952C300.391 72.6789 300.851 72.5533 301.354 72.2186C302.274 71.4653 303.153 70.7121 303.99 69.9588C304.911 69.2055 305.789 68.3686 306.626 67.448C308.468 69.4566 310.225 71.6327 311.899 73.9762C313.573 76.3196 315.079 78.7468 316.419 81.2576C317.841 83.6848 319.097 86.1119 320.185 88.5391C321.357 90.9662 322.319 93.2678 323.072 95.4439C324.495 99.7123 324.244 103.73 322.319 107.496C320.478 111.262 317.088 114.15 312.15 116.158C306.961 118.167 302.149 118.251 297.713 116.409C293.361 114.568 289.72 111.22 286.791 106.366C286.037 105.027 285.159 103.395 284.154 101.47C283.234 99.4613 282.271 97.327 281.267 95.0673C280.262 92.8075 279.258 90.4641 278.254 88.0369C277.333 85.6097 276.454 83.2663 275.617 81.0065Z" fill="#FF7900"/>
<path d="M204.398 75.3587C206.072 75.3587 207.453 75.4006 208.541 75.4843C209.712 75.568 210.8 75.6517 211.805 75.7354C212.893 75.8191 213.981 75.9446 215.069 76.112C216.24 76.1957 217.705 76.2794 219.463 76.3631C221.22 76.4468 222.936 77.0327 224.61 78.1207C226.284 79.2087 227.749 80.6734 229.004 82.5147C230.259 84.356 231.264 86.532 232.017 89.0429C232.77 91.47 233.147 94.1064 233.147 96.952C233.147 99.7977 232.77 102.476 232.017 104.987C231.264 107.498 230.218 109.674 228.878 111.515C227.623 113.44 226.158 114.946 224.484 116.034C222.811 117.123 221.095 117.667 219.337 117.667H156.943C153.344 117.667 150.247 116.118 147.652 113.021C145.142 110.008 143.886 105.614 143.886 99.8395C143.886 97.3287 144.263 94.9852 145.016 92.8091C145.769 90.6331 146.732 88.5826 147.904 86.6576C149.075 84.7326 150.373 82.975 151.795 81.3848C153.218 79.7109 154.599 78.1207 155.938 76.6142L189.709 38.0727C190.044 37.6542 190.128 37.2776 189.96 36.9428C189.793 36.5243 189.458 36.2314 188.956 36.064C188.537 35.8966 187.993 35.8547 187.324 35.9384C186.738 36.0221 186.194 36.3569 185.692 36.9428C184.688 38.1145 183.265 39.6629 181.423 41.5878C179.582 43.4291 177.866 45.2286 176.276 46.9862C174.351 47.0699 172.594 47.1117 171.003 47.1117C169.497 47.028 167.99 46.9862 166.484 46.9862C164.977 46.9025 163.387 46.7769 161.713 46.6095C160.123 46.4422 158.324 46.2748 156.315 46.1074C152.8 45.7726 149.996 44.1824 147.904 41.3368C145.895 38.4911 144.891 34.2227 144.891 28.5314C144.891 22.8402 146.188 18.5717 148.782 15.7261C151.461 12.8805 154.599 11.3321 158.198 11.081C163.722 10.7463 168.911 10.4952 173.765 10.3278C178.62 10.0767 183.432 9.95117 188.203 9.95117C192.973 9.95117 197.786 10.0767 202.64 10.3278C207.578 10.4952 212.809 10.7463 218.333 11.081C221.932 11.3321 224.987 12.8805 227.497 15.7261C230.092 18.5717 231.389 22.8402 231.389 28.5314C231.389 31.0423 231.013 33.4276 230.259 35.6874C229.59 37.8634 228.669 39.914 227.497 41.8389C226.409 43.7639 225.154 45.5634 223.731 47.2373C222.392 48.9112 221.095 50.4177 219.839 51.7568L190.839 84.6489C190.253 85.2348 190.044 85.7788 190.211 86.2809C190.379 86.6994 190.714 86.9923 191.216 87.1597C191.802 87.3271 192.471 87.3271 193.224 87.1597C193.978 86.9923 194.647 86.532 195.233 85.7788C195.568 85.2766 196.154 84.5652 196.991 83.6445C197.828 82.6402 198.706 81.594 199.627 80.506C200.631 79.418 201.552 78.4136 202.389 77.493C203.31 76.4886 203.979 75.7772 204.398 75.3587Z" fill="#FF7900"/>
<path d="M101.693 100.842C100.438 88.8739 99.8101 76.5707 99.8101 63.9328C99.8101 51.2948 100.438 38.9917 101.693 27.0233C101.944 24.6799 102.446 22.5038 103.2 20.4951C103.953 18.4864 104.999 16.7288 106.338 15.2223C107.761 13.7158 109.435 12.5441 111.36 11.7071C113.369 10.7865 115.712 10.3262 118.39 10.3262C120.985 10.3262 123.245 10.7865 125.17 11.7071C127.178 12.5441 128.852 13.7158 130.191 15.2223C131.614 16.7288 132.702 18.4864 133.455 20.4951C134.209 22.5038 134.711 24.6799 134.962 27.0233C136.217 38.9917 136.845 51.2948 136.845 63.9328C136.845 76.5707 136.217 88.8739 134.962 100.842C134.711 103.186 134.209 105.362 133.455 107.37C132.702 109.463 131.614 111.262 130.191 112.769C128.852 114.275 127.178 115.447 125.17 116.284C123.245 117.205 120.985 117.665 118.39 117.665C115.712 117.665 113.369 117.205 111.36 116.284C109.435 115.447 107.761 114.275 106.338 112.769C104.999 111.262 103.953 109.463 103.2 107.37C102.446 105.362 101.944 103.186 101.693 100.842Z" fill="#FF7900"/>
<path d="M78.729 63.1805C83.1648 64.6033 86.3871 67.4071 88.3958 71.5918C90.4881 75.7766 91.5343 81.5097 91.5343 88.7911C91.5343 93.3106 90.7392 97.2861 89.149 100.718C87.5588 104.065 85.2991 106.911 82.3697 109.255C79.5241 111.598 76.0508 113.439 71.9497 114.778C67.8487 116.201 63.2873 117.206 58.2656 117.791C53.3276 118.294 48.0548 118.545 42.4473 118.545C38.681 118.545 34.9566 118.419 31.274 118.168C27.5914 118.001 24.1181 117.75 20.854 117.415C18.5105 117.164 16.1671 116.494 13.8236 115.406C11.5638 114.318 9.51332 112.853 7.67203 111.012C5.83075 109.171 4.28239 106.953 3.02697 104.358C1.85524 101.764 1.14383 98.8345 0.892746 95.5704C0.223186 84.6901 -0.0697459 74.1445 0.0139492 63.9337C0.181339 53.7229 0.516119 43.0937 1.01829 32.046C1.18568 28.6982 1.85524 25.727 3.02697 23.1324C4.28239 20.5379 5.83075 18.32 7.67203 16.4787C9.51332 14.6374 11.5638 13.2146 13.8236 12.2103C16.1671 11.1222 18.5105 10.4527 20.854 10.2016C24.0344 9.8668 27.424 9.61572 31.0229 9.44833C34.7055 9.19725 38.4299 9.0717 42.1962 9.0717C47.9711 8.90431 53.3276 9.1554 58.2656 9.82495C63.2873 10.3271 67.765 11.1641 71.6986 12.3358C75.6323 13.4238 78.9382 15.0559 81.6165 17.232C84.2947 19.408 86.3034 22.2537 87.6425 25.7688C89.0653 29.2003 89.7767 33.4688 89.7767 38.5742C89.7767 41.5035 89.4001 44.391 88.6469 47.2366C87.8936 49.9985 86.5963 52.4675 84.7551 54.6436C82.9975 56.736 80.5703 58.4517 77.4736 59.7908C74.4606 61.0462 70.6943 61.674 66.1748 61.674C65.6726 61.674 65.296 61.8832 65.0449 62.3017C64.7938 62.6364 64.6683 63.0549 64.6683 63.5571C64.6683 64.0593 64.7938 64.5196 65.0449 64.9381C65.296 65.2728 65.6726 65.4402 66.1748 65.4402C67.9324 65.4402 69.8992 65.3147 72.0753 65.0636C74.335 64.8125 76.5529 64.1848 78.729 63.1805ZM33.9104 44.8513C39.0158 47.6969 44.5396 48.7849 50.482 48.1154C51.2352 48.0317 51.7793 47.7387 52.114 47.2366C52.4488 46.7344 52.6162 46.1904 52.6162 45.6045C52.6162 45.0187 52.4488 44.5165 52.114 44.098C51.8629 43.6795 51.4863 43.4703 50.9841 43.4703C47.8037 43.6377 45 43.5122 42.5728 43.0937C40.1457 42.5915 37.593 41.7546 34.9147 40.5828C34.4126 40.3318 33.9522 40.3736 33.5338 40.7084C33.1153 40.9595 32.8224 41.3361 32.655 41.8383C32.4876 42.3404 32.4876 42.8844 32.655 43.4703C32.8224 44.0562 33.2408 44.5165 33.9104 44.8513ZM33.9104 81.7607C39.0158 84.6064 44.5396 85.6944 50.482 85.0248C51.2352 84.9411 51.7793 84.6482 52.114 84.146C52.4488 83.6439 52.6162 83.0999 52.6162 82.514C52.6162 81.9281 52.4488 81.426 52.114 81.0075C51.8629 80.589 51.4863 80.3798 50.9841 80.3798C47.8037 80.5472 45 80.3798 42.5728 79.8776C40.1457 79.3754 37.593 78.5385 34.9147 77.3668C34.4126 77.1157 33.9522 77.1575 33.5338 77.4923C33.1153 77.7434 32.8224 78.12 32.655 78.6222C32.4876 79.1243 32.4876 79.7102 32.655 80.3798C32.8224 80.9656 33.2408 81.4259 33.9104 81.7607Z" fill="#FF7900"/>
<path d="M446.295 10.7871C447.28 15.9356 450.854 20.4587 456.127 22.418C459.555 23.6918 463.146 23.6753 466.369 22.6133C467.711 28.1416 471.686 32.9259 477.42 35.0566C483.874 37.4548 490.835 35.8519 495.582 31.4961C496.602 32.4275 497.813 33.1845 499.188 33.6953C502.983 35.1056 507.058 34.3004 509.998 31.9326C509.998 31.9706 510 32.0088 510 32.0469C510 35.0598 509.497 37.8635 508.493 40.458C507.573 42.9688 506.233 45.145 504.476 46.9863C502.718 48.8274 500.626 50.2506 498.199 51.2549C495.772 52.2592 493.051 52.7607 490.038 52.7607H485.896C485.477 51.087 484.974 49.3294 484.389 47.4883C483.887 45.6471 483.385 43.9732 482.883 42.4668C482.632 41.881 482.255 41.5043 481.753 41.3369C481.334 41.1695 480.916 41.1272 480.497 41.2109C480.079 41.211 479.702 41.3792 479.367 41.7139C479.116 41.9649 479.075 42.2995 479.242 42.7178C480.581 46.9025 481.711 51.4221 482.632 56.2764C483.552 61.1305 484.222 65.9847 484.641 70.8389C485.143 75.6931 485.435 80.4222 485.519 85.0254C485.686 89.5447 485.645 93.5621 485.394 97.0771C485.142 99.6716 484.556 102.225 483.636 104.735C482.715 107.163 481.376 109.339 479.618 111.264C477.944 113.189 475.853 114.737 473.342 115.909C470.831 117.081 467.818 117.667 464.303 117.667C460.871 117.667 457.858 117.081 455.264 115.909C452.753 114.737 450.618 113.189 448.86 111.264C447.187 109.339 445.848 107.162 444.844 104.735C443.923 102.225 443.378 99.6716 443.211 97.0771C442.709 89.9632 442.709 82.7234 443.211 75.3584C443.713 67.9934 444.885 60.4605 446.727 52.7607H438.44C435.428 52.7607 432.666 52.2591 430.155 51.2549C427.728 50.2505 425.636 48.8689 423.878 47.1113C422.204 45.2702 420.865 43.0946 419.86 40.584C418.94 38.0732 418.48 35.3108 418.479 32.2979C418.479 25.937 420.279 20.9573 423.878 17.3584C427.56 13.7596 432.414 11.7505 438.44 11.332C441.164 11.0973 443.782 10.9165 446.295 10.7871Z" fill="#FF7900"/>
<circle cx="485.579" cy="7.07201" r="6.3356" transform="rotate(7.11979 485.579 7.07201)" fill="#FF7900"/>
<circle cx="501.389" cy="15.3542" r="4.52543" transform="rotate(7.11979 501.389 15.3542)" fill="#FF7900"/>
</svg>
