<svg width="118" height="28" viewBox="0 0 118 28" fill="none" xmlns="http://www.w3.org/2000/svg">
<path d="M77.3395 22.9781C77.1856 21.7468 77.0894 20.4769 77.0509 19.1686C77.0124 17.8603 76.9932 16.4847 76.9932 15.0417C76.9932 13.5988 77.0124 12.2231 77.0509 10.9148C77.0894 9.60653 77.1856 8.34633 77.3395 7.13423C77.4357 6.21072 77.7628 5.45076 78.3207 4.85433C78.8979 4.25789 79.6098 3.78652 80.4564 3.44021C81.3029 3.07465 82.2457 2.82454 83.2846 2.68986C84.3236 2.53594 85.3625 2.45898 86.4015 2.45898C87.4982 2.45898 88.5756 2.52632 89.6338 2.661C90.7112 2.77644 91.6732 3.02656 92.5198 3.41135C93.3856 3.79614 94.0782 4.34447 94.5977 5.05634C95.1172 5.76821 95.3769 6.70133 95.3769 7.85572C95.3769 8.79846 95.1653 9.39489 94.742 9.64501C94.3187 9.89512 93.5395 9.86626 92.4044 9.55843C92.0196 9.46223 91.6155 9.38527 91.1922 9.32755C90.7882 9.25059 90.4034 9.21211 90.0378 9.21211C88.9989 9.21211 88.1042 9.28907 87.3539 9.44299C86.6035 9.57767 85.9205 9.77006 85.3048 10.0202C85.1509 10.0779 85.0451 10.1645 84.9874 10.2799C84.9296 10.3954 84.9104 10.5108 84.9296 10.6262C84.9681 10.7224 85.0355 10.7994 85.1317 10.8571C85.2471 10.8956 85.3914 10.886 85.5646 10.8282C86.1995 10.5974 86.8921 10.4242 87.6425 10.3088C88.3928 10.1933 89.1239 10.1356 89.8358 10.1356C90.5669 10.1164 91.25 10.1645 91.8849 10.2799C92.5198 10.3954 93.0297 10.5685 93.4145 10.7994C94.0879 11.2227 94.5785 11.7614 94.8863 12.4155C95.2134 13.0697 95.3769 13.9451 95.3769 15.0417C95.3769 16.1384 95.2134 17.0234 94.8863 17.6968C94.5785 18.351 94.0879 18.8801 93.4145 19.2841C93.0297 19.5342 92.5198 19.717 91.8849 19.8324C91.25 19.9479 90.5669 20.0056 89.8358 20.0056C89.1239 19.9863 88.3928 19.919 87.6425 19.8036C86.8921 19.6689 86.1995 19.4861 85.5646 19.2552C85.3914 19.1975 85.2471 19.1975 85.1317 19.2552C85.0355 19.3129 84.9681 19.3899 84.9296 19.4861C84.9104 19.5823 84.9296 19.6881 84.9874 19.8036C85.0451 19.919 85.1509 20.0056 85.3048 20.0633C85.9205 20.3134 86.6035 20.5058 87.3539 20.6405C88.1042 20.7752 88.9989 20.8425 90.0378 20.8425C90.4034 20.8425 90.7882 20.8136 91.1922 20.7559C91.6155 20.6982 92.0196 20.6212 92.4044 20.525C93.5395 20.2364 94.3187 20.2172 94.742 20.4673C95.1653 20.6982 95.3769 21.2754 95.3769 22.1989C95.3769 23.3533 95.1172 24.2864 94.5977 24.9983C94.0782 25.7101 93.3856 26.2585 92.5198 26.6433C91.6732 27.0473 90.7112 27.307 89.6338 27.4225C88.5756 27.5571 87.4982 27.6245 86.4015 27.6245C85.3625 27.6245 84.3236 27.5475 83.2846 27.3936C82.2457 27.2589 81.3029 27.0088 80.4564 26.6433C79.6098 26.2969 78.8979 25.8256 78.3207 25.2291C77.7628 24.6327 77.4357 23.8824 77.3395 22.9781Z" fill="white"/>
<path d="M63.8592 18.996C63.8399 19.7848 63.8015 20.5544 63.7437 21.3047C63.686 22.0551 63.6187 22.8054 63.5417 23.5558C63.484 24.0945 63.3686 24.5947 63.1954 25.0565C63.0222 25.5374 62.7721 25.9511 62.445 26.2974C62.1372 26.6437 61.7524 26.9131 61.2906 27.1055C60.8481 27.3171 60.3286 27.4229 59.7322 27.4229C59.1165 27.4229 58.5778 27.3171 58.1161 27.1055C57.6735 26.9131 57.2887 26.6437 56.9617 26.2974C56.6538 25.9511 56.4133 25.5374 56.2402 25.0565C56.067 24.5947 55.9516 24.0945 55.8938 23.5558C55.6052 20.8045 55.4609 17.9763 55.4609 15.0711C55.4609 12.1659 55.6052 9.33764 55.8938 6.58636C55.9516 6.04765 56.067 5.54742 56.2402 5.08567C56.4133 4.62392 56.6538 4.21988 56.9617 3.87357C57.2887 3.52725 57.6735 3.2579 58.1161 3.0655C58.5778 2.85387 59.1165 2.74805 59.7322 2.74805C60.3286 2.74805 60.8481 2.85387 61.2906 3.0655C61.7524 3.2579 62.1372 3.52725 62.445 3.87357C62.7721 4.21988 63.0222 4.62392 63.1954 5.08567C63.3686 5.54742 63.484 6.04765 63.5417 6.58636C63.6379 7.52911 63.7053 8.44299 63.7437 9.32802C63.7822 10.1938 63.8303 11.1173 63.888 12.0985C64.2921 10.9249 64.7635 9.79939 65.3022 8.72197C65.8601 7.62531 66.3604 6.66332 66.8029 5.83601C67.0915 5.2973 67.4378 4.81631 67.8418 4.39304C68.2459 3.95053 68.6884 3.61383 69.1694 3.38296C69.6696 3.13284 70.2084 2.99816 70.7856 2.97892C71.382 2.95968 72.0265 3.09436 72.7192 3.38296C73.8736 3.88319 74.6432 4.57582 75.028 5.46084C75.432 6.32663 75.4128 7.31747 74.9702 8.43337C74.6816 9.20296 74.3257 9.97255 73.9024 10.7421C73.4791 11.5117 73.0174 12.2524 72.5171 12.9643C72.0361 13.6569 71.5263 14.3111 70.9876 14.9268C70.4489 15.5232 69.9101 16.033 69.3714 16.4563C69.2752 16.514 69.2175 16.591 69.1983 16.6872C69.1983 16.7834 69.2175 16.87 69.256 16.9469C69.3137 17.0046 69.381 17.0431 69.458 17.0624C69.5542 17.0816 69.66 17.0527 69.7755 16.9758C69.9871 16.8026 70.1891 16.6295 70.3815 16.4563C70.5932 16.2832 70.7952 16.0908 70.9876 15.8791C71.4109 16.3409 71.8149 16.8411 72.1997 17.3798C72.5845 17.9185 72.9308 18.4765 73.2386 19.0537C73.5657 19.6116 73.8543 20.1696 74.1044 20.7275C74.3738 21.2855 74.5951 21.8146 74.7682 22.3148C75.0953 23.296 75.0376 24.2195 74.5951 25.0853C74.1718 25.9511 73.3926 26.6149 72.2574 27.0766C71.0645 27.5384 69.9582 27.5576 68.9385 27.1343C67.938 26.7111 67.1011 25.9415 66.4277 24.8256C66.2545 24.5177 66.0525 24.1426 65.8216 23.7001C65.61 23.2383 65.3888 22.7477 65.1579 22.2282C64.927 21.7087 64.6961 21.17 64.4652 20.6121C64.2536 20.0541 64.0516 19.5154 63.8592 18.996Z" fill="white"/>
<path d="M47.4876 17.6979C47.8724 17.6979 48.1899 17.7075 48.44 17.7268C48.7094 17.746 48.9595 17.7653 49.1904 17.7845C49.4405 17.8037 49.6906 17.8326 49.9407 17.8711C50.2101 17.8903 50.5468 17.9096 50.9508 17.9288C51.3549 17.948 51.7493 18.0827 52.1341 18.3328C52.5189 18.5829 52.8556 18.9196 53.1442 19.3429C53.4328 19.7662 53.6636 20.2664 53.8368 20.8436C54.01 21.4016 54.0965 22.0076 54.0965 22.6618C54.0965 23.3159 54.01 23.9316 53.8368 24.5088C53.6636 25.086 53.4231 25.5862 53.1153 26.0095C52.8267 26.452 52.49 26.7983 52.1052 27.0484C51.7204 27.2985 51.326 27.4236 50.922 27.4236H36.5786C35.7513 27.4236 35.0394 27.0676 34.4429 26.3558C33.8657 25.6631 33.5771 24.6531 33.5771 23.3255C33.5771 22.7483 33.6637 22.2096 33.8369 21.7094C34.01 21.2092 34.2313 20.7378 34.5007 20.2953C34.77 19.8528 35.0682 19.4487 35.3953 19.0832C35.7224 18.6984 36.0399 18.3328 36.3477 17.9865L44.111 9.12664C44.188 9.03044 44.2072 8.94386 44.1687 8.86691C44.1303 8.77071 44.0533 8.70337 43.9379 8.66489C43.8417 8.62641 43.7166 8.61679 43.5627 8.63603C43.428 8.65527 43.3029 8.73223 43.1875 8.86691C42.9566 9.13626 42.6295 9.49219 42.2063 9.93471C41.783 10.358 41.3886 10.7716 41.023 11.1757C40.5805 11.1949 40.1764 11.2045 39.8109 11.2045C39.4646 11.1853 39.1183 11.1757 38.7719 11.1757C38.4256 11.1564 38.0601 11.1276 37.6753 11.0891C37.3097 11.0506 36.896 11.0121 36.4343 10.9737C35.6262 10.8967 34.9817 10.5311 34.5007 9.87699C34.0389 9.22284 33.808 8.24162 33.808 6.93332C33.808 5.62502 34.1062 4.6438 34.7027 3.98965C35.3184 3.3355 36.0399 2.97956 36.8672 2.92184C38.137 2.84489 39.3299 2.78717 40.4458 2.74869C41.5617 2.69097 42.668 2.66211 43.7647 2.66211C44.8614 2.66211 45.9677 2.69097 47.0836 2.74869C48.2187 2.78717 49.4212 2.84489 50.6911 2.92184C51.5184 2.97956 52.2207 3.3355 52.7978 3.98965C53.3943 4.6438 53.6925 5.62502 53.6925 6.93332C53.6925 7.51051 53.6059 8.05884 53.4328 8.57831C53.2788 9.07854 53.0672 9.54992 52.7978 9.99243C52.5477 10.4349 52.2591 10.8486 51.9321 11.2334C51.6242 11.6182 51.326 11.9645 51.0374 12.2723L44.3708 19.8335C44.2361 19.9682 44.188 20.0933 44.2265 20.2087C44.2649 20.3049 44.3419 20.3722 44.4573 20.4107C44.592 20.4492 44.7459 20.4492 44.9191 20.4107C45.0923 20.3722 45.2462 20.2664 45.3809 20.0933C45.4578 19.9778 45.5925 19.8143 45.7849 19.6026C45.9773 19.3718 46.1793 19.1313 46.391 18.8812C46.6218 18.631 46.8335 18.4002 47.0259 18.1885C47.2375 17.9577 47.3914 17.7941 47.4876 17.6979Z" fill="white"/>
<path d="M23.8772 23.5558C23.5886 20.8045 23.4443 17.9763 23.4443 15.0711C23.4443 12.1659 23.5886 9.33764 23.8772 6.58636C23.935 6.04765 24.0504 5.54742 24.2236 5.08567C24.3967 4.62392 24.6372 4.21988 24.9451 3.87357C25.2721 3.52725 25.6569 3.2579 26.0994 3.0655C26.5612 2.85387 27.0999 2.74805 27.7156 2.74805C28.312 2.74805 28.8315 2.85387 29.274 3.0655C29.7358 3.2579 30.1206 3.52725 30.4284 3.87357C30.7555 4.21988 31.0056 4.62392 31.1788 5.08567C31.352 5.54742 31.4674 6.04765 31.5251 6.58636C31.8137 9.33764 31.958 12.1659 31.958 15.0711C31.958 17.9763 31.8137 20.8045 31.5251 23.5558C31.4674 24.0945 31.352 24.5947 31.1788 25.0565C31.0056 25.5375 30.7555 25.9511 30.4284 26.2974C30.1206 26.6437 29.7358 26.9131 29.274 27.1055C28.8315 27.3171 28.312 27.4229 27.7156 27.4229C27.0999 27.4229 26.5612 27.3171 26.0994 27.1055C25.6569 26.9131 25.2721 26.6437 24.9451 26.2974C24.6372 25.9511 24.3967 25.5375 24.2236 25.0565C24.0504 24.5947 23.935 24.0945 23.8772 23.5558Z" fill="white"/>
<path d="M18.5984 14.8973C19.6181 15.2243 20.3588 15.8689 20.8206 16.8308C21.3016 17.7928 21.5421 19.1108 21.5421 20.7846C21.5421 21.8235 21.3593 22.7374 20.9937 23.5263C20.6282 24.2958 20.1087 24.95 19.4353 25.4887C18.7812 26.0274 17.9827 26.4507 17.0399 26.7585C16.0972 27.0856 15.0486 27.3165 13.8942 27.4512C12.759 27.5666 11.5469 27.6243 10.2579 27.6243C9.39206 27.6243 8.53588 27.5954 7.68932 27.5377C6.84277 27.4993 6.04431 27.4415 5.29395 27.3646C4.75523 27.3069 4.21652 27.1529 3.6778 26.9028C3.15832 26.6527 2.68694 26.316 2.26366 25.8927C1.84038 25.4695 1.48444 24.9596 1.19584 24.3632C0.926485 23.7668 0.762946 23.0934 0.705226 22.343C0.551307 19.8419 0.483967 17.4177 0.503207 15.0704C0.541687 12.7232 0.618646 10.2797 0.734086 7.7401C0.772566 6.97052 0.926485 6.28751 1.19584 5.69108C1.48444 5.09465 1.84038 4.58479 2.26366 4.16152C2.68694 3.73825 3.15832 3.41117 3.6778 3.1803C4.21652 2.93018 4.75523 2.77626 5.29395 2.71854C6.02507 2.64159 6.80429 2.58387 7.63161 2.54539C8.47816 2.48767 9.33434 2.45881 10.2001 2.45881C11.5277 2.42033 12.759 2.47805 13.8942 2.63197C15.0486 2.7474 16.0779 2.9398 16.9822 3.20916C17.8865 3.45927 18.6465 3.83445 19.2621 4.33468C19.8778 4.83491 20.3396 5.48906 20.6474 6.29713C20.9745 7.08595 21.138 8.06718 21.138 9.2408C21.138 9.91419 21.0515 10.578 20.8783 11.2321C20.7051 11.867 20.4069 12.4346 19.9837 12.9348C19.5796 13.4158 19.0217 13.8102 18.3098 14.1181C17.6171 14.4066 16.7513 14.5509 15.7124 14.5509C15.5969 14.5509 15.5104 14.599 15.4526 14.6952C15.3949 14.7722 15.3661 14.8684 15.3661 14.9838C15.3661 15.0993 15.3949 15.2051 15.4526 15.3013C15.5104 15.3783 15.5969 15.4167 15.7124 15.4167C16.1164 15.4167 16.5686 15.3879 17.0688 15.3302C17.5883 15.2724 18.0981 15.1281 18.5984 14.8973ZM8.29538 10.6838C9.46902 11.3379 10.7389 11.588 12.1049 11.4341C12.2781 11.4149 12.4031 11.3475 12.4801 11.2321C12.557 11.1167 12.5955 10.9916 12.5955 10.8569C12.5955 10.7223 12.557 10.6068 12.4801 10.5106C12.4224 10.4144 12.3358 10.3663 12.2203 10.3663C11.4892 10.4048 10.8447 10.3759 10.2867 10.2797C9.72876 10.1643 9.14194 9.9719 8.52626 9.70255C8.41082 9.64483 8.305 9.65445 8.2088 9.73141C8.1126 9.78913 8.04526 9.87571 8.00678 9.99115C7.9683 10.1066 7.9683 10.2316 8.00678 10.3663C8.04526 10.501 8.14146 10.6068 8.29538 10.6838ZM8.29538 19.1685C9.46902 19.8226 10.7389 20.0727 12.1049 19.9188C12.2781 19.8996 12.4031 19.8322 12.4801 19.7168C12.557 19.6014 12.5955 19.4763 12.5955 19.3416C12.5955 19.207 12.557 19.0915 12.4801 18.9953C12.4224 18.8991 12.3358 18.851 12.2203 18.851C11.4892 18.8895 10.8447 18.851 10.2867 18.7356C9.72876 18.6201 9.14194 18.4277 8.52626 18.1584C8.41082 18.1007 8.305 18.1103 8.2088 18.1872C8.1126 18.245 8.04526 18.3315 8.00678 18.447C7.9683 18.5624 7.9683 18.6971 8.00678 18.851C8.04526 18.9857 8.14146 19.0915 8.29538 19.1685Z" fill="white"/>
<path d="M103.096 2.85547C103.323 4.03806 104.144 5.07719 105.355 5.52734C106.143 5.82001 106.968 5.81415 107.709 5.57031C108.017 6.8422 108.931 7.94324 110.25 8.43359C111.734 8.98494 113.334 8.61479 114.425 7.61328C114.66 7.8281 114.938 8.00336 115.255 8.12109C116.128 8.44543 117.063 8.25765 117.739 7.71289C117.739 7.72232 117.74 7.73176 117.74 7.74121C117.74 8.43376 117.624 9.07843 117.394 9.6748C117.182 10.2519 116.875 10.7526 116.471 11.1758C116.067 11.599 115.585 11.9264 115.027 12.1572C114.469 12.3881 113.844 12.5029 113.151 12.5029H112.199C112.103 12.1182 111.987 11.7142 111.853 11.291C111.737 10.8678 111.621 10.483 111.506 10.1367C111.448 10.0022 111.361 9.91541 111.246 9.87695C111.15 9.83863 111.054 9.82942 110.958 9.84863C110.862 9.84863 110.775 9.88691 110.698 9.96387C110.641 10.0215 110.631 10.0983 110.669 10.1943C110.977 11.1563 111.237 12.1956 111.448 13.3115C111.66 14.4274 111.814 15.5433 111.91 16.6592C112.026 17.775 112.093 18.8619 112.112 19.9199C112.151 20.9587 112.142 21.8824 112.084 22.6904C112.026 23.2868 111.891 23.874 111.68 24.4512C111.468 25.0091 111.16 25.5096 110.756 25.9521C110.371 26.3946 109.89 26.7502 109.312 27.0195C108.735 27.2888 108.043 27.4238 107.235 27.4238C106.447 27.4238 105.754 27.2889 105.157 27.0195C104.58 26.7502 104.09 26.3945 103.686 25.9521C103.301 25.5096 102.993 25.0091 102.762 24.4512C102.55 23.874 102.425 23.2869 102.387 22.6904C102.271 21.0552 102.271 19.3912 102.387 17.6982C102.502 16.0052 102.771 14.273 103.194 12.5029H101.29C100.597 12.5029 99.962 12.3881 99.3848 12.1572C98.8271 11.9264 98.3463 11.6089 97.9424 11.2051C97.5576 10.7818 97.2494 10.2812 97.0186 9.7041C96.8069 9.12691 96.7012 8.49146 96.7012 7.79883C96.7012 6.33682 97.1152 5.19246 97.9424 4.36523C98.7889 3.53793 99.9048 3.07569 101.29 2.97949C101.916 2.92552 102.518 2.88521 103.096 2.85547Z" fill="white"/>
<ellipse cx="1.45644" cy="1.45642" rx="1.45644" ry="1.45642" transform="matrix(0.992289 0.123942 -0.123946 0.992289 110.861 0.375)" fill="white"/>
<ellipse cx="1.04031" cy="1.0403" rx="1.04031" ry="1.0403" transform="matrix(0.992289 0.123942 -0.123946 0.992289 114.856 2.74219)" fill="white"/>
</svg>
